<?xml version="1.0" encoding="utf-8"?>
<!-- Generator: Adobe Illustrator 21.1.0, SVG Export Plug-In . SVG Version: 6.00 Build 0)  -->
<svg version="1.1" id="external_link" xmlns="http://www.w3.org/2000/svg" xmlns:xlink="http://www.w3.org/1999/xlink" x="0px"
	 y="0px" width="18px" height="18px" viewBox="0 0 18 18" style="enable-background:new 0 0 18 18;" xml:space="preserve">
<style type="text/css">
	.st0{fill:#FFFFFF;}
</style>
<path class="st0" d="M14.1,10.9v3.2c0,0.8-0.3,1.5-0.8,2c-0.6,0.6-1.2,0.8-2,0.8H2.9c-0.8,0-1.5-0.3-2-0.8c-0.6-0.6-0.8-1.2-0.8-2V5.8c0-0.8,0.3-1.5,0.8-2c0.6-0.6,1.2-0.8,2-0.8H10c0.1,0,0.2,0,0.2,0.1c0.1,0.1,0.1,0.1,0.1,0.2v0.6c0,0.1,0,0.2-0.1,0.2c-0.1,0.1-0.1,0.1-0.2,0.1H2.9c-0.4,0-0.8,0.2-1.1,0.5C1.4,4.9,1.3,5.3,1.3,5.8v8.4c0,0.4,0.2,0.8,0.5,1.1s0.7,0.5,1.1,0.5h8.4c0.4,0,0.8-0.2,1.1-0.5s0.5-0.7,0.5-1.1v-3.2c0-0.1,0-0.2,0.1-0.2s0.1-0.1,0.2-0.1h0.6c0.1,0,0.2,0,0.2,0.1S14.1,10.8,14.1,10.9zM18,2.2v5.1c0,0.2-0.1,0.3-0.2,0.5C17.7,7.9,17.5,8,17.4,8S17,7.9,16.9,7.8L15.1,6l-6.5,6.5c-0.1,0.1-0.1,0.1-0.2,0.1s-0.2,0-0.2-0.1L7,11.4c-0.1-0.1-0.1-0.1-0.1-0.2c0-0.1,0-0.2,0.1-0.2l6.6-6.5l-1.8-1.8c-0.1-0.1-0.2-0.3-0.2-0.5c0-0.2,0.1-0.3,0.2-0.5c0.1-0.1,0.3-0.2,0.5-0.2h5.1c0.2,0,0.3,0.1,0.5,0.2C17.9,1.9,18,2,18,2.2z"/>
</svg>
